<?xml version="1.0" standalone="no"?>
<!DOCTYPE svg PUBLIC "-//W3C//DTD SVG 20010904//EN"
 "http://www.w3.org/TR/2001/REC-SVG-20010904/DTD/svg10.dtd">
<svg version="1.0" xmlns="http://www.w3.org/2000/svg"
 width="1080.000000pt" height="1080.000000pt" viewBox="0 0 1080.000000 1080.000000"
 preserveAspectRatio="xMidYMid meet">
<metadata>
Created by potrace 1.14, written by Peter Selinger 2001-2017
</metadata>
<g transform="translate(0.000000,1080.000000) scale(0.100000,-0.100000)"
fill="#000000" stroke="none">
<path d="M7206 9518 l-160 -158 -452 0 c-378 0 -453 -2 -457 -14 -3 -8 -3 -17
0 -20 4 -3 211 -6 462 -6 l456 0 155 155 c142 142 167 172 158 193 -2 4 -75
-64 -162 -150z"/>
<path d="M5940 9640 c-122 -12 -194 -50 -340 -178 -118 -104 -125 -110 -214
-177 -43 -33 -106 -82 -140 -108 -33 -26 -74 -55 -90 -63 -26 -14 -179 -16
-1390 -15 -1103 2 -1364 -1 -1379 -11 -10 -7 -19 -26 -20 -42 -2 -24 3 -31 28
-40 21 -7 456 -11 1411 -11 l1382 0 88 60 c84 57 203 143 214 155 11 11 89 70
93 70 3 0 20 13 39 29 69 61 259 201 295 218 35 16 87 18 613 18 589 0 630 3
630 38 0 8 -9 26 -21 41 l-20 26 -557 -1 c-306 -1 -586 -5 -622 -9z"/>
<path d="M8696 9235 l-126 -125 -338 0 -338 0 -121 -120 -122 -120 -183 0
-183 0 -135 135 -135 135 -422 0 c-369 0 -423 -2 -423 -15 0 -13 52 -15 408
-15 224 0 413 -4 420 -8 6 -5 72 -68 146 -140 l134 -132 183 0 c101 0 190 4
197 9 7 4 67 60 132 124 l118 117 340 0 340 0 126 123 c111 109 147 157 117
157 -5 0 -66 -56 -135 -125z"/>
<path d="M7280 8757 c0 -8 43 -58 96 -111 l97 -96 123 0 c104 0 124 2 124 15
0 12 -20 15 -116 15 l-116 0 -94 93 c-99 97 -114 108 -114 84z"/>
<path d="M5682 8660 c-103 -34 -177 -99 -237 -205 -24 -42 -29 -65 -33 -146
-6 -123 8 -181 61 -257 78 -110 167 -165 293 -180 263 -30 492 208 445 465
-17 94 -50 159 -113 222 -84 84 -174 121 -293 120 -40 0 -93 -8 -123 -19z
m273 -92 c100 -52 167 -149 181 -260 15 -129 -65 -271 -186 -331 -66 -32 -215
-32 -282 2 -130 64 -209 222 -178 359 7 30 21 72 31 92 29 56 100 118 165 146
80 34 194 30 269 -8z"/>
<path d="M3667 8592 c-16 -3 -17 -25 -15 -290 l3 -287 50 0 50 0 3 286 2 287
-38 3 c-21 2 -46 3 -55 1z"/>
<path d="M3095 8577 c-3 -7 -4 -136 -3 -287 l3 -275 220 0 220 0 0 40 0 40
-165 5 -165 5 0 80 0 80 145 5 145 5 3 39 c2 24 -2 42 -9 47 -7 4 -58 8 -114
8 -55 0 -117 0 -138 1 l-38 0 3 68 3 67 158 3 157 3 0 39 0 40 -210 0 c-161 0
-212 -3 -215 -13z"/>
<path d="M6787 8573 c-2 -4 -3 -24 -3 -43 l1 -35 50 0 50 0 0 40 0 40 -47 3
c-25 2 -48 -1 -51 -5z"/>
<path d="M4868 8549 c-21 -11 -39 -25 -40 -32 0 -6 -2 -16 -3 -22 -2 -5 -3
-20 -4 -33 -1 -14 -10 -26 -26 -32 -19 -7 -25 -17 -25 -40 0 -17 5 -30 13 -30
35 -1 39 -16 38 -143 -3 -182 16 -217 116 -217 63 0 75 9 71 51 -3 29 -6 34
-27 31 -45 -5 -51 11 -51 139 0 131 0 132 63 137 14 2 18 9 15 35 -3 28 -7 33
-38 37 l-35 5 -3 68 c-3 75 -7 77 -64 46z"/>
<path d="M3981 8433 c-35 -7 -108 -85 -120 -129 -25 -90 -6 -192 46 -251 50
-57 183 -72 251 -29 46 29 78 74 64 88 -5 5 -27 12 -49 15 -34 4 -41 2 -56
-21 -14 -21 -25 -26 -60 -26 -56 1 -88 26 -90 71 l-2 34 138 3 c113 2 139 5
144 18 3 8 -2 44 -11 78 -33 122 -122 174 -255 149z m101 -78 c42 -17 68 -66
48 -90 -14 -17 -135 -21 -159 -6 -24 16 -4 65 39 94 30 21 29 21 72 2z"/>
<path d="M4431 8418 c-110 -54 -142 -222 -65 -340 34 -53 88 -78 166 -78 83 0
134 28 168 92 13 26 22 49 20 51 -3 3 -26 8 -51 12 -44 7 -46 6 -58 -23 -22
-52 -88 -68 -134 -32 -61 48 -60 200 1 246 36 28 115 11 127 -27 6 -19 12 -21
47 -16 57 8 64 19 42 59 -42 73 -172 101 -263 56z"/>
<path d="M5237 8420 c-26 -21 -29 -21 -47 -5 -12 11 -31 15 -57 13 l-38 -3 0
-205 0 -205 50 0 50 0 6 140 c3 77 9 148 14 158 10 25 50 39 89 32 29 -6 32
-4 44 36 7 23 11 44 8 46 -3 3 -24 8 -48 10 -34 4 -49 0 -71 -17z"/>
<path d="M6450 8414 c-19 -8 -42 -22 -52 -30 -20 -19 -38 -11 -38 17 0 16 -7
19 -44 19 -42 0 -44 -1 -47 -32 -2 -18 -3 -115 -1 -216 l4 -183 46 3 47 3 6
140 c3 77 9 151 14 164 9 26 77 61 105 54 10 -3 27 -14 37 -25 15 -17 19 -43
22 -179 l3 -159 49 0 49 0 0 179 c0 166 -1 180 -21 205 -43 54 -111 70 -179
40z"/>
<path d="M7136 8423 c-81 -21 -146 -118 -146 -217 0 -144 108 -243 242 -221
74 12 151 77 146 123 -2 22 -9 28 -40 33 -43 7 -48 4 -67 -33 -19 -38 -62 -51
-106 -32 -45 19 -65 59 -65 133 0 98 26 132 103 133 33 0 45 -5 62 -26 17 -21
29 -26 63 -26 56 0 62 19 22 69 -48 59 -133 85 -214 64z"/>
<path d="M7552 8417 c-18 -5 -46 -25 -62 -44 -67 -75 -22 -165 97 -197 121
-33 138 -40 141 -62 5 -34 -24 -54 -78 -54 -38 0 -55 6 -81 27 -37 31 -58 37
-94 23 -34 -13 -32 -27 14 -70 48 -46 117 -65 196 -55 97 12 165 83 151 159
-10 52 -57 85 -160 112 -115 29 -116 30 -116 58 0 18 6 27 23 30 64 14 103 10
126 -15 16 -18 27 -21 57 -16 21 4 41 10 46 15 15 15 -49 80 -90 92 -46 12
-127 11 -170 -3z"/>
<path d="M6785 8408 c-3 -8 -4 -103 -3 -213 l3 -200 50 0 50 0 0 210 0 210
-48 3 c-32 2 -49 -1 -52 -10z"/>
<path d="M4620 7855 c0 -13 23 -15 149 -15 82 0 162 -5 178 -11 37 -13 153
-128 153 -151 0 -16 -11 -18 -107 -18 l-108 -1 -60 -59 -60 -60 -314 0 -314 0
-119 -117 c-111 -110 -135 -143 -105 -143 7 0 62 50 122 110 l110 110 314 0
314 0 51 51 c81 81 79 81 218 78 l123 -3 72 -68 72 -68 345 0 c329 0 376 4
351 28 -4 4 -160 7 -347 7 l-340 0 -174 173 -174 172 -175 0 c-149 0 -175 -2
-175 -15z"/>
<path d="M8569 7790 c-1155 -5 -1196 -6 -1224 -24 -33 -21 -114 -88 -184 -151
-49 -44 -95 -88 -227 -215 -226 -219 -237 -227 -312 -240 -46 -7 -221 -10
-552 -8 -444 3 -488 2 -524 -14 -34 -16 -38 -21 -31 -45 4 -16 7 -28 8 -29 1
0 13 -8 27 -17 22 -15 75 -17 535 -17 545 0 594 4 694 51 31 15 105 81 231
208 263 264 350 346 387 365 29 15 145 16 1301 16 1217 0 1270 1 1285 18 10
10 17 32 17 49 0 25 -5 32 -27 38 -66 18 -276 20 -1404 15z"/>
<path d="M5198 7220 c-62 -63 -86 -94 -81 -105 4 -13 24 2 90 67 l83 83 383 5
c353 5 382 6 385 23 3 16 -20 17 -385 17 l-388 -1 -87 -89z"/>
<path d="M5085 5745 c-138 -23 -291 -81 -503 -189 -59 -30 -119 -58 -135 -61
-15 -4 -30 -11 -33 -16 -2 -5 -22 -16 -42 -26 -20 -9 -65 -34 -100 -55 -34
-21 -65 -38 -67 -38 -3 0 -23 -11 -45 -25 -35 -22 -115 -68 -260 -148 -30 -17
-57 -33 -60 -36 -3 -3 -18 -13 -35 -21 -16 -8 -73 -39 -125 -69 -52 -30 -113
-65 -135 -77 -44 -24 -141 -79 -165 -94 -8 -5 -22 -11 -30 -14 -8 -3 -37 -19
-65 -35 -27 -16 -70 -40 -95 -54 -25 -13 -74 -39 -110 -59 -111 -60 -390 -207
-510 -269 -47 -24 -86 -47 -88 -51 -2 -4 -10 -8 -18 -8 -7 0 -30 -10 -51 -21
-21 -12 -85 -46 -143 -76 -58 -31 -114 -63 -125 -73 -11 -9 -54 -35 -95 -56
-97 -50 -255 -143 -350 -207 -167 -111 -310 -253 -362 -359 -69 -140 -79 -175
-107 -378 -18 -130 -21 -340 -10 -789 21 -936 12 -2395 -15 -2413 -6 -4 -280
-8 -608 -8 -392 0 -598 -3 -598 -10 0 -7 1807 -10 5400 -10 2970 0 5400 4
5400 8 0 16 -241 22 -900 22 l-657 0 -7 513 c-4 281 -10 562 -14 622 -9 150
-9 560 2 1310 7 561 6 644 -8 755 -22 167 -47 253 -108 377 -103 209 -271 342
-768 606 -41 22 -95 51 -120 65 -69 38 -212 112 -350 182 -69 35 -137 72 -152
82 -14 10 -31 18 -37 18 -6 0 -28 10 -49 23 -20 13 -100 56 -176 96 -77 40
-157 84 -178 97 -21 13 -40 24 -42 24 -3 0 -63 32 -133 71 -70 39 -153 85
-183 101 -30 17 -85 48 -122 69 -38 22 -98 56 -135 77 -38 22 -108 62 -156 90
-49 29 -93 52 -98 52 -5 0 -9 4 -9 9 0 5 -8 11 -17 14 -17 6 -127 65 -168 91
-62 40 -373 203 -481 253 -244 113 -455 151 -649 118z m370 -179 c50 -13 104
-30 120 -37 17 -6 46 -18 65 -26 91 -38 356 -176 463 -242 37 -22 69 -41 71
-41 5 0 288 -159 301 -169 5 -5 35 -22 65 -38 30 -17 82 -46 115 -66 33 -19
96 -54 140 -77 44 -23 100 -55 125 -70 98 -60 593 -325 1050 -562 91 -47 197
-102 235 -123 39 -20 97 -51 130 -68 33 -18 62 -34 65 -37 3 -3 34 -21 70 -40
36 -18 69 -38 75 -42 5 -5 53 -36 105 -69 83 -52 180 -129 243 -194 39 -40
105 -152 130 -220 55 -153 60 -231 56 -790 -5 -738 -5 -1663 1 -2172 3 -243 1
-445 -3 -450 -9 -9 -168 -9 -1462 -5 -760 2 -867 5 -845 17 14 8 32 14 40 15
9 0 23 8 32 19 8 10 22 21 29 24 11 5 11 9 -3 20 -31 25 -41 69 -40 182 1 98
12 171 42 286 6 20 10 68 10 107 l0 71 -37 10 c-21 6 -54 11 -73 11 -44 0
-293 63 -356 90 -72 31 -119 87 -145 170 -25 83 -21 138 13 207 56 112 177
149 452 138 145 -6 174 -5 184 7 18 23 78 337 91 481 15 162 47 361 66 410 24
61 19 137 -12 193 -31 56 -37 63 -75 88 -25 16 -28 17 -28 2 0 -9 -3 -16 -7
-16 -10 0 -68 22 -113 43 -30 13 -35 14 -38 1 -2 -9 -10 -13 -21 -9 -10 3 -30
1 -44 -4 -15 -6 -181 -13 -369 -16 -189 -3 -458 -10 -598 -16 -140 -7 -334
-13 -430 -15 -317 -6 -703 -15 -809 -19 -77 -4 -110 -1 -130 10 -14 7 -37 16
-51 19 -38 9 -58 24 -42 34 37 24 427 49 927 58 187 3 453 9 590 11 138 3 276
6 307 6 31 0 55 4 52 9 -3 4 -141 8 -307 8 -179 0 -317 4 -339 11 l-38 10 0
105 c0 103 0 105 -26 114 -29 12 -304 13 -319 2 -6 -4 -17 -26 -23 -49 -10
-32 -18 -43 -32 -43 -11 0 -20 4 -20 8 0 4 -19 22 -42 40 l-42 32 -210 0
c-116 0 -227 -5 -247 -10 -43 -12 -47 -22 -56 -142 -7 -97 -12 -103 -102 -115
-25 -3 -51 -10 -57 -15 -7 -5 -45 -16 -85 -24 -74 -15 -137 -48 -191 -99 -16
-14 -28 -32 -28 -39 0 -7 -12 -26 -26 -41 -26 -29 -27 -30 -18 -124 12 -131
11 -228 -3 -242 -7 -7 -8 -21 -3 -40 5 -16 9 -201 9 -411 0 -356 6 -605 16
-653 6 -28 52 -48 181 -80 60 -14 127 -32 149 -40 22 -7 69 -19 105 -25 65
-11 199 -43 256 -61 17 -5 37 -9 46 -9 8 0 23 -9 33 -20 10 -11 24 -20 32 -20
7 0 22 -5 33 -12 16 -10 26 -8 59 10 45 25 79 25 105 -1 10 -9 24 -17 32 -17
8 0 14 -6 14 -14 0 -8 9 -17 19 -21 11 -3 23 -15 27 -27 3 -12 16 -31 28 -42
11 -12 23 -30 24 -41 6 -32 18 -38 49 -22 16 9 54 16 84 16 30 0 78 5 108 11
29 5 56 10 60 11 3 0 -2 3 -11 7 -13 5 -15 11 -8 22 9 13 11 13 19 1 5 -8 18
-12 31 -8 33 9 92 -22 152 -79 20 -19 33 -92 23 -125 -9 -26 -110 -129 -127
-129 -6 0 -19 -6 -27 -14 -9 -7 -38 -26 -66 -41 -54 -30 -127 -36 -200 -16
-22 5 -105 9 -185 8 -106 -1 -184 5 -290 21 -80 12 -203 26 -275 32 -71 6
-168 16 -215 22 -126 15 -256 8 -305 -18 -22 -11 -66 -24 -99 -28 -32 -3 -63
-9 -68 -12 -19 -12 15 -33 80 -49 37 -9 94 -23 127 -32 33 -9 87 -17 120 -20
33 -2 101 -6 150 -9 50 -4 96 -11 102 -16 7 -6 20 -8 28 -4 9 3 13 2 10 -4 -4
-6 30 -10 93 -10 54 0 128 -3 163 -7 64 -8 -2520 -21 -3020 -15 l-264 3 9 382
c10 415 11 1193 4 2182 -5 629 -5 630 18 735 14 66 39 137 65 190 86 177 284
331 727 563 69 36 166 86 215 112 50 26 137 72 195 102 229 120 498 263 625
333 125 69 160 88 320 178 94 52 188 104 210 116 42 24 213 121 330 190 39 22
89 51 113 64 24 13 96 53 160 90 165 95 423 225 512 257 171 62 236 75 365 70
86 -3 145 -11 210 -29z m1384 -3048 l26 -23 -370 -3 c-203 -2 -367 0 -362 4
10 10 188 23 452 33 121 4 222 8 224 9 2 1 15 -8 30 -20z m159 -13 c-3 -3 -13
-2 -22 1 -14 5 -15 9 -4 15 13 8 36 -6 26 -16z m-2764 9 c9 -3 16 -17 16 -31
0 -22 3 -24 30 -18 32 7 70 -1 70 -15 0 -5 -19 -14 -42 -20 -24 -6 -53 -16
-66 -22 -18 -9 -28 -9 -42 0 -11 7 -37 12 -59 12 -47 0 -67 19 -51 49 21 40
97 63 144 45z m2799 -91 c-7 -2 -19 -2 -25 0 -7 3 -2 5 12 5 14 0 19 -2 13 -5z
m-2893 -53 c0 -5 -9 -10 -21 -10 -11 0 -17 5 -14 10 3 6 13 10 21 10 8 0 14
-4 14 -10z"/>
<path d="M4878 5089 c-19 -19 -45 -52 -57 -74 -12 -22 -30 -53 -41 -70 -11
-16 -23 -37 -27 -45 -3 -8 -17 -29 -30 -46 -31 -42 -53 -108 -53 -163 0 -40 4
-48 31 -66 17 -11 39 -36 49 -56 10 -19 26 -41 34 -48 9 -8 16 -20 16 -27 0
-8 4 -14 9 -14 18 0 46 -136 46 -230 0 -92 1 -94 25 -101 40 -11 295 -10 350
2 l50 11 0 93 c0 52 4 97 10 100 6 3 10 16 10 27 0 21 17 88 46 178 8 25 14
58 14 74 0 16 6 37 13 45 51 61 47 188 -10 300 -54 106 -69 115 -211 123 -64
3 -144 9 -178 13 -59 7 -61 6 -96 -26z"/>
<path d="M6425 3796 c-58 -21 -121 -95 -141 -164 -46 -159 5 -295 126 -335 40
-14 109 -17 136 -7 35 14 21 30 -21 23 -68 -11 -127 6 -166 47 -102 107 -61
351 68 405 45 19 136 19 172 0 62 -32 101 -112 101 -208 0 -71 -60 -138 -103
-116 -17 10 -18 19 -12 114 7 97 6 104 -13 114 -31 16 -94 13 -118 -7 -37 -29
-58 -82 -58 -148 -1 -94 41 -127 114 -89 26 13 30 13 45 -2 39 -39 117 -10
153 57 20 38 23 55 19 108 -7 87 -44 161 -98 191 -52 30 -148 37 -204 17z
m123 -170 c2 -10 1 -48 -3 -83 -9 -89 -44 -123 -90 -89 -34 25 -18 151 23 183
24 18 66 12 70 -11z"/>
<path d="M4471 3719 c-61 -37 -66 -47 -65 -119 0 -55 6 -77 37 -138 78 -153
209 -262 314 -262 38 0 50 6 90 43 59 56 55 79 -22 126 -54 33 -63 34 -123 16
-19 -6 -31 1 -67 39 -24 25 -51 59 -60 76 -15 29 -15 33 6 66 19 32 20 40 10
77 -29 98 -56 116 -120 76z m77 -66 c13 -39 12 -45 -7 -69 -28 -36 -27 -51 14
-119 63 -104 131 -146 184 -113 16 10 26 7 60 -15 23 -15 41 -31 41 -35 0 -4
-12 -19 -25 -34 -41 -48 -108 -33 -210 45 -83 63 -158 186 -171 280 -6 43 -4
49 26 77 45 42 71 37 88 -17z"/>
<path d="M5252 3708 c-12 -6 -25 -21 -28 -33 -3 -12 -4 -99 -2 -192 4 -230 1
-227 206 -212 64 4 179 9 256 10 120 3 142 6 164 23 l25 20 -5 178 c-5 153 -8
181 -23 198 -17 19 -32 20 -294 19 -178 0 -284 -4 -299 -11z m579 -24 c9 -11
14 -65 17 -183 4 -145 2 -168 -12 -180 -22 -19 -541 -20 -559 -2 -19 19 -23
333 -5 349 16 12 231 28 419 31 104 1 129 -2 140 -15z"/>
<path d="M5313 3635 c-3 -11 18 -40 66 -87 39 -40 71 -75 71 -79 0 -9 -59 -59
-69 -59 -15 0 -61 -49 -61 -65 0 -24 33 -10 99 42 55 44 58 45 136 48 77 2 82
1 135 -35 76 -51 78 -52 85 -41 3 6 -22 29 -55 51 -34 23 -64 48 -67 56 -4 12
50 88 99 137 10 10 18 25 18 35 0 10 -38 -23 -92 -81 -125 -131 -129 -131
-253 -2 -51 52 -95 95 -99 95 -4 0 -9 -7 -13 -15z"/>
<path d="M6507 2683 c18 -2 50 -2 70 0 21 2 7 4 -32 4 -38 0 -55 -2 -38 -4z"/>
<path d="M2856 1642 c-3 -6 -1 -14 5 -17 15 -10 25 3 12 16 -7 7 -13 7 -17 1z"/>
<path d="M2784 1140 c-23 -9 -36 -33 -29 -52 9 -21 65 -48 101 -48 45 0 46 26
3 75 -32 37 -40 39 -75 25z"/>
<path d="M2663 304 c-73 -17 44 -52 227 -69 188 -18 666 -37 707 -29 47 9 30
30 -30 37 -29 4 -135 11 -237 17 -102 6 -224 17 -272 25 -90 15 -355 28 -395
19z"/>
<path d="M6905 119 c-10 -15 1 -23 20 -15 9 3 13 10 10 16 -8 13 -22 13 -30
-1z"/>
</g>
</svg>
